<svg id="SvgjsSvg1001" width="288" height="288" xmlns="http://www.w3.org/2000/svg" version="1.1" xmlns:xlink="http://www.w3.org/1999/xlink" xmlns:svgjs="http://svgjs.com/svgjs"><defs id="SvgjsDefs1002"></defs><g id="SvgjsG1008"><svg xmlns="http://www.w3.org/2000/svg" enable-background="new 0 0 274 167" viewBox="0 0 274 167" width="288" height="288"><path fill="#5271ff" d="M206 48.5c-1.5-1.5-3.9-1.5-5.3 0s-1.5 3.9 0 5.3c1.5 1.5 3.9 1.5 5.3 0l0 0C207.5 52.4 207.5 50 206 48.5M140 114.5c-1.5-1.5-3.9-1.5-5.3 0-1.5 1.5-1.5 3.9 0 5.3 1.5 1.5 3.9 1.5 5.3 0l0 0C141.5 118.4 141.5 116 140 114.5" class="colorff006f svgShape"></path><path fill="#5271ff" d="M48.6,5c-6.5-6.5-17-6.5-23.5,0s-6.5,17,0,23.5s17,6.5,23.5,0l0,0C55.1,22,55.1,11.5,48.6,5 M29.6,24 c-4-4-4-10.4,0-14.4s10.4-4,14.4,0S48,20,44,24l0,0C40,28,33.6,28,29.6,24" class="color91184d svgShape"></path><path fill="#5271ff" d="M114.6,4.9c-6.5-6.5-17-6.5-23.5,0s-6.5,17,0,23.5s17,6.5,23.5,0l0,0C121.1,21.9,121.1,11.4,114.6,4.9 M95.6,23.9c-4-4-4-10.4,0-14.4s10.4-4,14.4,0s4,10.4,0,14.4l0,0C106.1,27.9,99.6,27.9,95.6,23.9L95.6,23.9" class="colorff006f svgShape"></path><path fill="#5271ff" d="M139 47.5c-1.5-1.5-3.9-1.5-5.3 0-1.5 1.5-1.5 3.9 0 5.3 1.5 1.5 3.9 1.5 5.3 0C140.5 51.4 140.5 49 139 47.5L139 47.5M272.9 49.5c-1.5-1.5-3.9-1.5-5.3 0s-1.5 3.9 0 5.3c1.5 1.5 3.9 1.5 5.3 0l0 0C274.3 53.3 274.3 51 272.9 49.5M207 115.4c-1.5-1.5-3.9-1.5-5.3 0-1.5 1.5-1.5 3.9 0 5.3 1.5 1.5 3.9 1.5 5.3 0C208.5 119.3 208.5 116.9 207 115.4L207 115.4" class="color91184d svgShape"></path><path fill="#5271ff" d="M182.1,72.3c-6.5-6.5-17-6.5-23.5,0s-6.5,17,0,23.5s17,6.5,23.5,0C188.6,89.4,188.6,78.9,182.1,72.3 L182.1,72.3 M163.1,91.3c-4-4-4-10.4,0-14.4s10.4-4,14.4,0s4,10.4,0,14.4S167.1,95.3,163.1,91.3L163.1,91.3" class="colorff006f svgShape"></path><path fill="#5271ff" d="M6.4,47.4c-1.5-1.5-3.9-1.5-5.3,0s-1.5,3.9,0,5.3s3.9,1.5,5.3,0l0,0C7.9,51.2,7.9,48.9,6.4,47.4 C6.5,47.4,6.4,47.4,6.4,47.4" class="color91184d svgShape"></path><path fill="#5271ff" d="M48.4,71.1c-6.5-6.5-17-6.5-23.5,0s-6.5,17,0,23.5s17,6.5,23.5,0l0,0C54.9,88.2,54.9,77.6,48.4,71.1L48.4,71.1 M29.4,90.1c-4-4-4-10.4,0-14.4s10.4-4,14.4,0s4,10.4,0,14.4S33.4,94.1,29.4,90.1" class="colorff006f svgShape"></path><path fill="#5271ff" d="M72.8,113.7c-1.5-1.5-3.9-1.5-5.3,0c-1.5,1.5-1.5,3.9,0,5.3s3.9,1.5,5.3,0l0,0 C74.3,117.6,74.3,115.2,72.8,113.7L72.8,113.7" class="color91184d svgShape"></path><path fill="#5271ff" d="M115.8,138.6c-6.5-6.5-17-6.5-23.5,0s-6.5,17,0,23.5s17,6.5,23.5,0l0,0C122.3,155.6,122.3,145.1,115.8,138.6 M96.8,157.6c-4-4-4-10.4,0-14.4s10.4-4,14.4,0s4,10.4,0,14.4l0,0C107.3,161.6,100.8,161.6,96.8,157.6" class="colorff006f svgShape"></path></svg></g></svg>