<svg id="SvgjsSvg1047" width="288" height="288" xmlns="http://www.w3.org/2000/svg" version="1.1" xmlns:xlink="http://www.w3.org/1999/xlink" xmlns:svgjs="http://svgjs.com/svgjs"><defs id="SvgjsDefs1048"></defs><g id="SvgjsG1049"><svg xmlns="http://www.w3.org/2000/svg" enable-background="new 0 0 125.8 125.8" viewBox="0 0 125.8 125.8" width="288" height="288"><path fill="#5271ff" d="M125.8,62.9c0,34.7-28.1,62.9-62.9,62.9S0,97.6,0,62.9S28.1,0,62.9,0l0,0C97.6,0,125.8,28.2,125.8,62.9z" class="colorff006f svgShape"></path><path fill="#f8f4ff" d="M76.9,67.9l-2.3-14.3L62,59.5v7.9c0,0.6-0.4,1-1,1l0,0c-0.6,0-1-0.4-1-0.9c0,0,0,0,0-0.1v-9.6 c0-1.1-0.9-2.1-2.1-2.1l0,0l0,0c-2.6,0-4.6,2.1-4.6,4.6l0,0v14.1c0,3.4,1.1,6.6,3.2,9.3l0,0c1.1,1.4,1.7,3,1.7,4.8h16.4v-3.4 c0-2.4,0.3-4.7,0.8-7l1.3-5.3C77.1,71.3,77.1,69.5,76.9,67.9z" class="colorf8f4ff svgShape"></path><path fill="#d4cddf" d="M59.9,66.8v-2.6c-2.6-0.9-4.9-2.5-6.6-4.5c0,0.2-0.1,0.4-0.1,0.7v2.7C55.1,64.8,57.4,66.1,59.9,66.8z" class="colord4cddf svgShape"></path><path fill="#00176f" d="M64.9,62.3l5.6-3c3.2-1.7,6.1-3.9,8.7-6.4l0,0c4.3-4.3,4.3-11.4,0-15.7c-0.2-0.2-0.3-0.3-0.5-0.5 c-4.6-3.9-11.4-3.5-15.5,0.8l-0.4,0.4c-0.4,0.4-1,0.4-1.4,0l0,0L61,37.5c-4.2-4.3-10.9-4.6-15.5-0.8c-4.6,4.1-5,11.1-1,15.7 c0.2,0.2,0.3,0.3,0.5,0.5l0,0c2.6,2.6,5.5,4.7,8.6,6.4l5.6,3c0.8,0.4,1.5,1,2,1.8c0.3,0.5,0.9,0.6,1.4,0.4c0.2-0.1,0.3-0.2,0.4-0.4 C63.4,63.3,64.1,62.7,64.9,62.3z" class="color91184d svgShape"></path><path fill="#d4cddf" d="M59.1 65.4c.2.3.5.6.8.8v-3.4c-.3-.2-.5-.4-.8-.5l-5.6-3c0 0-.1 0-.1-.1-.1.4-.2.8-.2 1.2v1.5l4.8 2.5 0 0 0 0C58.5 64.6 58.8 65 59.1 65.4zM75 56.5c-1.4 1.1-2.9 2-4.5 2.8l-5.6 3c-.8.4-1.5 1-2 1.8-.2.3-.5.5-.9.5V67c1.2 0 2.2-.6 2.9-1.5.3-.4.6-.7 1.1-.9l0 0 0 0 5.6-3c1.3-.7 2.6-1.5 3.8-2.3L75 56.5z" class="colord4cddf svgShape"></path><path fill="#00176f" d="M57.9,88.6h17c0.5,0,0.9,0.4,0.9,0.9l0,0v2.6l0,0H57l0,0v-2.6C57,89,57.4,88.6,57.9,88.6L57.9,88.6L57.9,88.6z " class="color91184d svgShape"></path><path fill="#f8f4ff" d="M57.8 55.8c-2.6 0-4.6 2.1-4.6 4.6l0 0v14.1l6.7-7.1v-9.6C59.9 56.7 59 55.8 57.8 55.8zM66.8 45c-1.3-1.1-3.3-1-4.5.2L62 45.5l-.3-.3c-1.2-1.3-3.2-1.4-4.5-.2s-1.4 3.2-.2 4.5l.1.1 4.5 4.5c.3.3.7.3.9 0l0 0 4.5-4.5c1.2-1.2 1.3-3.3 0-4.5C66.9 45.1 66.9 45 66.8 45z" class="colorf8f4ff svgShape"></path></svg></g></svg>