<svg id="SvgjsSvg1024" width="288" height="288" xmlns="http://www.w3.org/2000/svg" version="1.1" xmlns:xlink="http://www.w3.org/1999/xlink" xmlns:svgjs="http://svgjs.com/svgjs"><defs id="SvgjsDefs1025"></defs><g id="SvgjsG1026"><svg xmlns="http://www.w3.org/2000/svg" enable-background="new 0 0 125.8 125.8" viewBox="0 0 125.8 125.8" width="288" height="288"><path fill="#5271ff" d="M125.8,62.9c0,34.7-28.1,62.9-62.9,62.9S0,97.6,0,62.9S28.1,0,62.9,0l0,0C97.6,0,125.8,28.2,125.8,62.9z" class="colorff006f svgShape"></path><path fill="#001b8c" d="M82.5,45.5c-5.3-4.7-13.5-4-18.5,1l-1.2,1.2l-1.2-1.2c-5-5-13.2-5.7-18.5-1c-5.4,4.8-5.8,13.1-1,18.4 c0.2,0.2,0.3,0.4,0.5,0.6L61,82.7c0.5,0.5,1.2,0.8,1.9,0.8s1.4-0.3,1.9-0.8L83,64.4c5.1-5.1,5.1-13.4,0-18.5 C82.9,45.8,82.7,45.6,82.5,45.5z" class="color91184d svgShape"></path><path fill="#000a27" d="M73.8,56.3l8.5,8.9l0.8-0.8c2.2-2.2,3.5-5.1,3.8-8.1C86.9,56.3,73.8,56.3,73.8,56.3z" class="colorcc156d svgShape"></path><polygon fill="#000a27" points="58.5 80.2 58.5 65 50.2 71.9" class="colorcc156d svgShape"></polygon><path fill="#f9f5ff" d="M82.6,59.7c-0.7,0.5-1,1.4-0.7,2.2l0.3,0.8c0.2,0.5,0.4,1,0.5,1.5c0,0.2-0.1,0.4-0.3,0.4c-0.1,0-0.3,0-0.3-0.1 l-2.3-2.3l0,0l-5.6-5.6c-0.3-0.3-0.8-0.3-1.1,0c-0.5,0.4-0.5,1-0.2,1.5l0,0l5,5.7c0.1,0.1,0.1,0.2,0,0.3c-0.1,0.1-0.2,0.1-0.3,0 L71,57.8c-0.3-0.3-0.8-0.3-1.1,0L69.8,58c-0.3,0.3-0.3,0.8,0,1.1l6.2,6.5c0.1,0.1,0.1,0.2,0.1,0.3c0,0,0,0-0.1,0.1s-0.2,0.1-0.3,0 l-6.5-5.8c-0.3-0.3-0.8-0.3-1.1,0L68,60.4c-0.3,0.3-0.3,0.8,0,1.1l6,6.2c0.1,0.1,0.1,0.2,0,0.3l0,0c-0.1,0.1-0.2,0.1-0.3,0 l-4.6-3.9c-0.2-0.2-0.5-0.3-0.8-0.3c-0.5-0.1-0.9,0.3-0.9,0.7c0,0.2,0,0.5,0.2,0.7l4.6,4.6l0.9,0.9l3.4,3.4c2.2,2.2,5.8,2.2,8,0 l0,0l0.1-0.1c1.7-1.7,2.6-4.2,2.3-6.6c-0.3-2.4-1.2-4.7-2.6-6.6l-0.7-0.9C83.4,59.5,82.9,59.4,82.6,59.7z" class="colorf9f5ff svgShape"></path><path fill="#f9f5ff" d="M82.6 75.7h-2.3l0 0v-7.1l0 0h6.6l0 0v2.9C86.9 73.8 85 75.7 82.6 75.7zM42.2 59.8l-.7.9c-1.4 1.9-2.3 4.2-2.6 6.6s.6 4.9 2.3 6.6l.1.1c2.2 2.2 5.8 2.2 8 0l0 0 3.4-3.4.9-.9 4.6-4.6c.3-.3.3-.9 0-1.2-.2-.2-.4-.3-.7-.2-.3 0-.6.1-.8.3l-4.6 4c-.1.1-.2 0-.3 0-.1-.1 0-.2 0-.2l6-6.2c.3-.3.3-.8 0-1.1l-.2-.2c-.3-.3-.8-.3-1.1 0L50.1 66c-.1.1-.2.1-.3 0s-.1-.2 0-.3l6.2-6.6c.3-.3.3-.8 0-1.1l-.2-.2c-.3-.3-.8-.3-1.1 0L48 63.9c-.1.1-.2.1-.3 0l0 0c-.1-.1-.1-.2 0-.3l5-5.7c.4-.4.3-1.1-.1-1.5-.3-.3-.8-.3-1.1 0L45.9 62l0 0-2.3 2.3c-.1.1-.4.1-.5 0-.1.1-.1 0-.1-.2.1-.5.3-1 .5-1.5l.3-.8c.4-.8.1-1.7-.7-2.2C42.8 59.5 42.5 59.6 42.2 59.8z" class="colorf9f5ff svgShape"></path><path fill="#f9f5ff" d="M38.9,68.6h6.6l0,0v7.1l0,0h-2.3c-2.3,0-4.2-1.9-4.2-4.2L38.9,68.6L38.9,68.6z" class="colorf9f5ff svgShape"></path></svg></g></svg>