<svg id="SvgjsSvg1001" width="288" height="288" xmlns="http://www.w3.org/2000/svg" version="1.1" xmlns:xlink="http://www.w3.org/1999/xlink" xmlns:svgjs="http://svgjs.com/svgjs"><defs id="SvgjsDefs1002"></defs><g id="SvgjsG1008"><svg xmlns="http://www.w3.org/2000/svg" enable-background="new 0 0 110.8 6.8" viewBox="0 0 110.8 6.8" width="288" height="288"><path fill="#5271ff" d="M3.4 6.8C1.5 6.8 0 5.3 0 3.4S1.5 0 3.4 0s3.4 1.5 3.4 3.4S5.3 6.8 3.4 6.8zM3.4.8C2 .8.8 2 .8 3.4S2 6 3.4 6 6 4.8 6 3.4 4.8.8 3.4.8zM16.4 6.8c-1.9 0-3.4-1.5-3.4-3.4S14.5 0 16.4 0s3.4 1.5 3.4 3.4l0 0C19.8 5.3 18.3 6.8 16.4 6.8zM16.4.8c-1.4 0-2.6 1.2-2.6 2.6S15 6 16.4 6 19 4.8 19 3.4 17.8.8 16.4.8zM29.4 6.8c-1.9 0-3.4-1.5-3.4-3.4S27.5 0 29.4 0s3.4 1.5 3.4 3.4l0 0C32.8 5.3 31.3 6.8 29.4 6.8zM29.4.8c-1.4 0-2.6 1.2-2.6 2.6S28 6 29.4 6 32 4.8 32 3.4 30.8.8 29.4.8zM42.4 6.8c-1.9 0-3.4-1.5-3.4-3.4S40.5 0 42.4 0s3.4 1.5 3.4 3.4C45.8 5.3 44.3 6.8 42.4 6.8zM42.4.8c-1.4 0-2.6 1.2-2.6 2.6S41 6 42.4 6 45 4.8 45 3.4l0 0C45 2 43.8.8 42.4.8zM55.4 6.8c-1.9 0-3.4-1.5-3.4-3.4S53.5 0 55.4 0s3.4 1.5 3.4 3.4C58.8 5.3 57.3 6.8 55.4 6.8zM55.4.8c-1.4 0-2.6 1.2-2.6 2.6S54 6 55.4 6 58 4.8 58 3.4l0 0C58 2 56.8.8 55.4.8zM68.4 6.8c-1.9 0-3.4-1.5-3.4-3.4S66.5 0 68.4 0s3.4 1.5 3.4 3.4S70.3 6.8 68.4 6.8zM68.4.8c-1.4 0-2.6 1.2-2.6 2.6S67 6 68.4 6 71 4.8 71 3.4l0 0C71 2 69.8.8 68.4.8zM81.4 6.8c-1.9 0-3.4-1.5-3.4-3.4S79.5 0 81.4 0s3.4 1.5 3.4 3.4S83.3 6.8 81.4 6.8zM81.4.8c-1.4 0-2.6 1.2-2.6 2.6S80 6 81.4 6 84 4.8 84 3.4l0 0C84 2 82.8.8 81.4.8zM94.4 6.8c-1.9 0-3.4-1.5-3.4-3.4S92.5 0 94.4 0s3.4 1.5 3.4 3.4S96.3 6.8 94.4 6.8zM94.4.8c-1.4 0-2.6 1.2-2.6 2.6S93 6 94.4 6 97 4.8 97 3.4l0 0C97 2 95.8.8 94.4.8zM107.4 6.8c-1.9 0-3.4-1.5-3.4-3.4s1.5-3.4 3.4-3.4 3.4 1.5 3.4 3.4S109.3 6.8 107.4 6.8zM107.4.8c-1.4 0-2.6 1.2-2.6 2.6S106 6 107.4 6s2.6-1.2 2.6-2.6l0 0C110 2 108.8.8 107.4.8z" class="color91184d svgShape"></path></svg></g></svg>