<svg id="SvgjsSvg1019" width="288" height="288" xmlns="http://www.w3.org/2000/svg" version="1.1" xmlns:xlink="http://www.w3.org/1999/xlink" xmlns:svgjs="http://svgjs.com/svgjs"><defs id="SvgjsDefs1020"></defs><g id="SvgjsG1021"><svg xmlns="http://www.w3.org/2000/svg" enable-background="new 0 0 118.2 82.9" viewBox="0 0 118.2 82.9" width="288" height="288"><path fill="#5271ff" d="M28.4,54.5c-6.5-6.5-17-6.5-23.5,0s-6.5,17,0,23.5s17,6.5,23.5,0l0,0C34.9,71.6,34.9,61,28.4,54.5 M9.4,73.5 c-4-4-4-10.4,0-14.4s10.4-4,14.4,0s4,10.4,0,14.4l0,0C19.8,77.5,13.4,77.5,9.4,73.5" class="color91184d svgShape"></path><path fill="#0e3aff" d="M61.5 63.3c-1.5-1.5-3.9-1.5-5.3 0-1.5 1.5-1.5 3.9 0 5.3 1.5 1.5 3.9 1.5 5.3 0C63 67.2 63 64.8 61.5 63.3L61.5 63.3M74.4 17.7C74.9 8.5 68 .6 58.8 0S41.7 6.4 41.1 15.6c-.6 9.2 6.4 17.1 15.6 17.6C65.9 33.8 73.8 26.9 74.4 17.7M47.6 16c.3-5.6 5.2-9.9 10.8-9.6 5.6.3 9.9 5.2 9.6 10.8-.3 5.6-5.2 9.9-10.8 9.6l0 0C51.5 26.5 47.2 21.6 47.6 16" class="colorff006f svgShape"></path><path fill="#5271ff" d="M118.1,67.1c0.6-9.2-6.4-17.1-15.6-17.6c-9.2-0.6-17.1,6.4-17.6,15.6c-0.6,9.2,6.4,17.1,15.6,17.6 C109.6,83.3,117.5,76.3,118.1,67.1 M91.3,65.4c0.3-5.6,5.2-9.9,10.8-9.6s9.9,5.2,9.6,10.8c-0.3,5.6-5.2,9.9-10.8,9.6l0,0 C95.3,75.9,91,71.1,91.3,65.4" class="color91184d svgShape"></path></svg></g></svg>