<svg id="SvgjsSvg1035" width="288" height="288" xmlns="http://www.w3.org/2000/svg" version="1.1" xmlns:xlink="http://www.w3.org/1999/xlink" xmlns:svgjs="http://svgjs.com/svgjs"><defs id="SvgjsDefs1036"></defs><g id="SvgjsG1037"><svg xmlns="http://www.w3.org/2000/svg" enable-background="new 0 0 125.8 125.8" viewBox="0 0 125.8 125.8" width="288" height="288"><path fill="#5271ff" d="M125.8,62.9c0,34.7-28.1,62.9-62.9,62.9S0,97.6,0,62.9S28.1,0,62.9,0l0,0C97.6,0,125.8,28.2,125.8,62.9z" class="colorff006f svgShape"></path><path fill="#f8f4ff" d="M71.7 45.1v-3.9c0-3.1-1.7-6-4.3-7.5l0 0c-2.7-1.6-6-1.6-8.7 0l0 0c-2.7 1.5-4.4 4.4-4.3 7.5v3.9c0 2.7 1.5 5.2 3.8 6.6l0 0c3 1.7 6.7 1.7 9.8 0l0 0C70.2 50.3 71.7 47.8 71.7 45.1zM75.7 80.8H50.3c-3.5 0-6.3-2.8-6.3-6.3l0 0c0-10.5 8.5-19 19-19l0 0c10.5 0 19 8.5 19 19l0 0C82 78 79.2 80.8 75.7 80.8z" class="colorf8f4ff svgShape"></path><path fill="#d4cddf" d="M63.5,70.8L63.4,71c-0.2,0.2-0.5,0.2-0.7,0l-0.2-0.2c-2.1-2.2-5.6-2.4-8-0.6c-2.4,2-2.8,5.7-0.7,8.1 c0.1,0.1,0.2,0.3,0.3,0.4c0.4,0.4,0.7,0.7,1.1,1h15.6c0.4-0.3,0.8-0.7,1.1-1c2.2-2.2,2.2-5.9,0-8.1c-0.1-0.1-0.2-0.2-0.4-0.3 C69.1,68.4,65.7,68.6,63.5,70.8z" class="colord4cddf svgShape"></path><path fill="#d4cddf" d="M69.1,85H56.9c-3.4,0-6.2-2.8-6.2-6.2l0,0c0-3.4,2.8-6.2,6.2-6.2H69c3.4,0,6.2,2.8,6.2,6.2l0,0 C75.2,82.2,72.5,85,69.1,85z" class="colord4cddf svgShape"></path><path fill="#f8f4ff" d="M52.5,76.9v-6.6L44,74.5v1.3c0,4.5,3,8.4,7.4,9.6l8.8,2c1.2,0.3,2.5-0.4,2.8-1.6c0.1-0.2,0.1-0.4,0.1-0.6l0,0 c0-0.9-0.5-1.7-1.3-2.1l-8-4.3C53,78.5,52.5,77.7,52.5,76.9z" class="colorf8f4ff svgShape"></path><path fill="#f8f4ff" d="M73.5,76.9v-6.6l8.5,4.2v1.3c0,4.5-3,8.4-7.4,9.6l-8.8,2c-1.2,0.3-2.5-0.4-2.8-1.6c0-0.2,0-0.4,0-0.6l0,0 c0-0.9,0.5-1.7,1.3-2.1l8-4.3C73,78.5,73.5,77.7,73.5,76.9z" class="colorf8f4ff svgShape"></path><path fill="#001469" d="M64.3,83.1l2.5-1.3c1.4-0.7,2.7-1.7,3.8-2.8l0,0c1.9-1.9,1.9-5,0-6.9c-0.1-0.1-0.2-0.2-0.3-0.3 c-2-1.6-5-1.4-6.8,0.5l-0.1,0.1c-0.2,0.2-0.5,0.2-0.6,0l-0.1-0.1c-1.8-1.9-4.7-2.1-6.8-0.5c-2.1,1.7-2.4,4.8-0.6,6.9 c0.1,0.1,0.2,0.2,0.3,0.3l0,0c1.1,1.1,2.4,2.1,3.8,2.8l2.5,1.3c0.8,0.4,1.3,1.2,1.3,2C63,84.3,63.5,83.5,64.3,83.1z" class="color91184d svgShape"></path><path fill="#d4cddf" d="M57.2,56.4c1.8,0.9,3.8,1.4,5.8,1.3c2,0.1,4-0.4,5.8-1.3C65,55.2,61,55.2,57.2,56.4z" class="colord4cddf svgShape"></path></svg></g></svg>