<svg id="SvgjsSvg1001" width="288" height="288" xmlns="http://www.w3.org/2000/svg" version="1.1" xmlns:xlink="http://www.w3.org/1999/xlink" xmlns:svgjs="http://svgjs.com/svgjs"><defs id="SvgjsDefs1002"></defs><g id="SvgjsG1008"><svg xmlns="http://www.w3.org/2000/svg" enable-background="new 0 0 125.8 125.8" viewBox="0 0 125.8 125.8" width="288" height="288"><path fill="#5271ff" d="M125.8,62.9c0,34.7-28.1,62.9-62.9,62.9S0,97.6,0,62.9S28.1,0,62.9,0l0,0C97.6,0,125.8,28.2,125.8,62.9z" class="colorff006f svgShape"></path><path fill="#f9f5ff" d="M69.3,77.7V41.3c0-1.4-1.1-2.5-2.4-2.5H41.3c-1.4,0-2.5,1.1-2.5,2.5v36.4c0,5.1,4.1,9.2,9.2,9.2h30.4 C73.4,86.9,69.3,82.8,69.3,77.7L69.3,77.7z" class="colorf9f5ff svgShape"></path><path fill="#0a37fb" d="M58.6,80.7c-0.6,0-1.2,0.4-1.4,0.9c-1.5,3.2-4.7,5.2-8.3,5.2h30.4c2.8,0,5.5-1.3,7.2-3.5 c0.6-0.7,0.4-1.7-0.2-2.3c-0.3-0.2-0.6-0.4-1-0.4H58.6V80.7z" class="colorcc156d svgShape"></path><path fill="#03177d" d="M69.8,80.7H58.6c-0.6,0-1.2,0.4-1.4,0.9l0,0c-0.4,0.8-0.8,1.5-1.4,2.1l0,0c-0.3,0.3-0.5,0.6-0.8,0.8l0,0 c-0.3,0.3-0.7,0.5-1,0.7l-0.1,0.1c-0.3,0.2-0.6,0.3-0.9,0.5L52.7,86c-0.4,0.2-0.7,0.3-1.1,0.4h-0.1c-0.3,0.1-0.7,0.2-1,0.2h-0.3 c-0.4,0.1-0.8,0.1-1.2,0.1h29.5C74.6,86.8,71.1,84.4,69.8,80.7z" class="color91184d svgShape"></path><rect width="15.3" height="1.9" x="45.5" y="55.2" fill="#d5cee0" class="colord5cee0 svgShape"></rect><rect width="17.9" height="1.9" x="45.5" y="60.7" fill="#d5cee0" class="colord5cee0 svgShape"></rect><rect width="17.9" height="1.9" x="45.5" y="66.2" fill="#d5cee0" class="colord5cee0 svgShape"></rect><rect width="11.2" height="1.9" x="45.5" y="71.6" fill="#d5cee0" class="colord5cee0 svgShape"></rect><path fill="#0a37fb" d="M69.3,48.1v18.6c0,0.4,0.3,0.7,0.7,0.7c0.1,0,0.2,0,0.3-0.1l3-1.6c0.2-0.1,0.5-0.1,0.7,0l3,1.6 c0.3,0.2,0.8,0,0.9-0.3c0-0.1,0.1-0.2,0.1-0.3V48.1H69.3z" class="colorcc156d svgShape"></path><circle cx="73.6" cy="52.2" r="9.9" fill="#03177d" class="color91184d svgShape"></circle><path fill="#0a37fb" d="M79.3,52.2c0,3.2-2.6,5.7-5.7,5.7c-3.2,0-5.7-2.6-5.7-5.7c0-3.2,2.6-5.7,5.7-5.7l0,0 C76.8,46.5,79.3,49.1,79.3,52.2z" class="colorcc156d svgShape"></path><rect width="100" height="100" x="-171" y="-195.5" fill="#f2e205" class="colorf2e205 svgShape"></rect><rect width="100" height="100" x="-53" y="-195.5" fill="#d9b23d" class="colord9b23d svgShape"></rect><rect width="100" height="100" x="71" y="-195.5" fill="#f29f05" class="colorf29f05 svgShape"></rect></svg></g></svg>