<svg id="SvgjsSvg1001" width="288" height="288" xmlns="http://www.w3.org/2000/svg" version="1.1" xmlns:xlink="http://www.w3.org/1999/xlink" xmlns:svgjs="http://svgjs.com/svgjs"><defs id="SvgjsDefs1002"></defs><g id="SvgjsG1008"><svg xmlns="http://www.w3.org/2000/svg" enable-background="new 0 0 34 34" viewBox="0 0 34 34" width="288" height="288"><path fill="#482ff7" d="M21.5,34C14.6,34,9,28.4,9,21.5S14.6,9,21.5,9S34,14.6,34,21.5S28.4,34,21.5,34z M21.5,13 c-4.7,0-8.5,3.8-8.5,8.5s3.8,8.5,8.5,8.5s8.5-3.8,8.5-8.5S26.2,13,21.5,13z" class="color91184d svgShape"></path><path fill="#2d6cdf" d="M12.5,25C5.6,25,0,19.4,0,12.5S5.6,0,12.5,0S25,5.6,25,12.5S19.4,25,12.5,25z M12.5,4C7.8,4,4,7.8,4,12.5 S7.8,21,12.5,21s8.5-3.8,8.5-8.5S17.2,4,12.5,4z" class="colorff006f svgShape"></path></svg></g></svg>